<svg version="1" xmlns="http://www.w3.org/2000/svg" width="346.667" height="346.667" viewBox="0 0 260.000000 260.000000"><path d="M119 56.6c-13.3 2.5-21.8 6.6-30.6 14.7-13.7 12.4-20.9 29.8-22.1 52.7-2.1 41.9 15.8 71.2 48.7 79.7 8.8 2.2 27.3 2.2 36 0 21.5-5.6 37.4-20.7 42.5-40.4 2.8-10.5 3.6-9.9-12.6-9.8h-14.1l-3.2 7c-3.6 7.7-8 12.2-15.4 15.7-6.7 3.3-22.6 3.3-29.2.1-11.3-5.4-17.9-15.8-21.6-33.5-.8-4.1-.5-23.2.5-26.6.5-1.7.8-3.2.5-3.2-.8 0 4-11.7 6.7-16.1 5.7-9.1 16-14.9 27.2-15 7.4-.1 10.7.6 16.7 3.7 7.8 3.9 14.3 12.1 16.4 20.6l.6 2.8h14.5c16.7 0 15.9.7 13-10.4-4.1-15.7-15.2-29.1-30.4-36.6-11.8-5.9-30.1-8.1-44.1-5.4z"/></svg>