<?xml version="1.0" standalone="no"?>
<!DOCTYPE svg PUBLIC "-//W3C//DTD SVG 20010904//EN"
 "http://www.w3.org/TR/2001/REC-SVG-20010904/DTD/svg10.dtd">
<svg version="1.0" xmlns="http://www.w3.org/2000/svg"
 width="1024.000000pt" height="1024.000000pt" viewBox="0 0 1024.000000 1024.000000"
 preserveAspectRatio="xMidYMid meet">
<metadata>
Created by potrace 1.11, written by Peter Selinger 2001-2013
</metadata>
<g transform="translate(0.000000,1024.000000) scale(0.100000,-0.100000)"
fill="#000000" stroke="none">
<path d="M7197 10058 c-6 -4 -15 -4 -19 -1 -5 2 -15 0 -22 -6 -7 -6 -20 -9
-29 -5 -8 3 -18 1 -22 -5 -3 -6 -15 -11 -25 -11 -16 0 -49 -14 -100 -42 -8 -4
-35 -19 -60 -32 -29 -15 -335 -307 -861 -822 -449 -440 -835 -817 -858 -838
l-41 -40 -340 346 c-247 251 -353 352 -387 369 -27 13 -50 27 -51 32 -2 4 -8
5 -13 2 -5 -3 -19 0 -31 6 -13 7 -39 14 -58 15 -19 2 -52 5 -73 7 -21 2 -40 0
-43 -5 -3 -5 -14 -6 -24 -3 -10 3 -21 2 -24 -4 -3 -5 -15 -7 -25 -4 -10 3 -22
0 -25 -6 -4 -6 -17 -11 -30 -11 -12 0 -27 -5 -34 -12 -6 -6 -29 -21 -51 -32
-55 -29 -1464 -1409 -1594 -1561 -501 -587 -790 -1248 -872 -1990 -64 -581 21
-1195 240 -1730 39 -96 169 -364 209 -430 13 -22 40 -67 60 -99 20 -33 36 -65
36 -71 0 -6 -262 -268 -582 -581 -815 -796 -1197 -1179 -1241 -1247 -152 -229
-164 -496 -35 -738 71 -133 208 -258 341 -310 28 -11 56 -23 61 -27 6 -3 17
-7 26 -8 8 -1 33 -5 55 -9 22 -4 56 -8 76 -9 19 -2 40 -5 46 -9 6 -4 13 -4 17
0 3 4 34 7 69 8 34 1 62 3 62 5 0 1 9 4 20 5 92 12 248 94 352 185 18 17 37
30 41 30 4 0 48 46 97 102 97 110 1590 1578 1605 1578 11 0 113 -59 120 -69 3
-4 26 -18 53 -30 26 -13 47 -28 47 -34 0 -5 3 -8 6 -4 3 3 23 -4 43 -17 34
-21 210 -110 221 -111 3 0 32 -14 65 -30 33 -16 69 -30 80 -32 10 -2 22 -8 25
-13 3 -5 15 -11 25 -13 11 -2 28 -7 37 -11 9 -4 22 -9 30 -10 7 -1 23 -8 36
-14 12 -7 26 -10 31 -7 5 3 11 1 13 -5 1 -5 14 -11 28 -12 14 -2 28 -7 31 -11
3 -4 17 -9 30 -10 13 0 27 -5 30 -10 4 -5 18 -9 33 -9 14 0 26 -5 26 -10 0 -5
4 -7 9 -4 5 3 34 -3 64 -13 30 -11 57 -17 60 -15 2 2 23 -2 46 -11 23 -8 45
-14 49 -14 4 1 9 1 12 -1 3 -1 19 -4 35 -6 61 -11 70 -12 70 -14 0 -4 63 -12
98 -13 20 0 37 -3 37 -7 0 -3 12 -5 28 -5 15 1 32 -1 37 -4 6 -3 33 -6 60 -7
28 -1 50 -3 50 -4 0 -7 136 -12 325 -12 246 0 339 4 357 15 6 4 15 3 18 -3 4
-7 12 -7 18 -2 7 5 26 9 42 10 29 2 47 4 125 17 19 3 49 7 66 9 17 2 36 6 43
10 6 4 16 4 21 1 6 -4 17 -1 25 5 8 6 19 9 25 5 6 -4 17 -1 25 5 8 6 19 9 25
5 6 -4 17 -2 24 4 7 6 20 9 29 5 8 -3 18 -1 22 5 3 6 17 11 30 11 13 0 26 4
29 9 3 5 15 7 25 4 10 -3 22 0 25 6 4 6 18 11 31 11 13 0 27 5 30 10 4 6 10 8
14 6 8 -5 137 36 148 47 3 4 16 7 27 7 12 0 29 7 39 15 11 7 25 11 31 9 7 -3
19 2 26 11 7 8 22 15 34 15 11 0 30 7 40 15 10 8 23 12 28 9 4 -3 20 4 34 15
15 11 30 18 35 15 5 -3 21 4 35 15 15 12 33 21 41 21 8 0 26 9 40 20 14 11 32
20 40 20 8 0 26 9 40 20 14 11 33 20 43 20 9 0 25 9 34 19 10 11 30 22 44 26
15 3 36 15 47 25 11 11 36 26 56 34 20 8 42 22 49 31 8 9 35 27 60 40 25 13
52 31 60 40 7 9 34 28 59 43 25 14 73 49 106 77 33 28 87 71 120 95 33 25 161
144 285 266 124 121 459 449 745 728 290 284 536 533 556 563 94 139 100 314
17 474 -14 28 -142 164 -348 372 -179 180 -329 339 -335 353 -11 29 -115 -77
952 968 607 594 740 729 773 784 99 168 129 346 89 522 -11 46 -15 57 -44 125
-46 106 -179 243 -285 293 -19 10 -37 20 -40 24 -3 4 -15 9 -25 11 -11 2 -28
7 -37 11 -9 4 -25 9 -35 11 -10 2 -18 4 -18 5 0 3 -49 10 -91 14 -23 1 -46 6
-52 10 -6 3 -14 2 -17 -4 -5 -8 -11 -8 -19 -1 -7 6 -16 8 -20 4 -4 -4 -22 -8
-39 -9 -18 -1 -40 -5 -50 -9 -10 -4 -21 -5 -24 -1 -3 3 -12 1 -20 -5 -7 -7
-21 -13 -31 -13 -18 -2 -66 -21 -92 -37 -8 -5 -34 -18 -57 -28 -46 -22 -74
-48 -1087 -1041 -367 -360 -676 -656 -685 -658 -11 -2 -104 85 -261 245 -134
136 -409 416 -612 621 -370 376 -394 405 -354 429 25 15 1630 1593 1669 1641
55 68 113 190 133 278 13 59 15 104 11 193 -8 155 -44 253 -135 367 -53 65
-169 157 -219 175 -18 6 -33 15 -33 20 0 5 -11 9 -24 9 -14 0 -28 5 -31 10 -3
6 -19 10 -36 10 -16 0 -29 3 -29 8 0 8 -19 10 -148 14 -46 2 -89 0 -95 -4z"/>
</g>
</svg>
